<?xml version="1.0" standalone="no"?><!DOCTYPE svg PUBLIC "-//W3C//DTD SVG 1.1//EN" "http://www.w3.org/Graphics/SVG/1.1/DTD/svg11.dtd"><svg t="1503859695694" class="icon" style="" viewBox="0 0 1024 1024" version="1.1" xmlns="http://www.w3.org/2000/svg" p-id="6456" xmlns:xlink="http://www.w3.org/1999/xlink" width="200" height="200"><defs><style type="text/css"></style></defs><path d="M512 512m-512 0a512 512 0 1 0 1024 0 512 512 0 1 0-1024 0Z" fill="#FFD05B" p-id="6457"></path><path d="M613.593701 549.089764c-21.770079 114.494488-91.111811 121.751181-101.593701 121.751181-10.48189 0-79.823622-7.256693-101.593701-122.55748l8.062992-28.220473c25.801575 33.058268 58.053543 56.440945 93.530709 56.440945s67.729134-23.382677 93.530709-56.440945l8.062992 29.026772z" fill="#FFFFFF" p-id="6458"></path><path d="M608.755906 532.15748c-25.801575 35.477165-59.666142 60.472441-96.755906 60.472441s-70.954331-24.995276-96.755906-60.472441l3.225197-11.288189c25.801575 33.058268 58.053543 56.440945 93.530709 56.440945s67.729134-23.382677 93.530709-56.440945l3.225197 11.288189z" fill="#E6E9EE" p-id="6459"></path><path d="M811.943307 677.291339c-188.674016-64.503937-198.349606-129.007874-198.349606-129.007874-21.770079 115.300787-91.111811 122.55748-101.593701 122.55748-10.48189 0-79.823622-7.256693-101.593701-122.55748 0 0-2.418898 60.472441-198.349606 129.007874 0 0-49.184252 45.959055-70.954331 187.867716 93.530709 97.562205 224.95748 158.840945 370.091339 158.840945 145.940157 0 277.366929-61.27874 370.091338-158.840945-20.15748-141.908661-69.341732-187.867717-69.341732-187.867716z" fill="#324A5E" p-id="6460"></path><path d="M715.993701 637.782677c-16.932283-8.869291-31.445669-16.932283-43.540158-24.188976l-16.932283 239.470866H368.47874l-16.932283-239.470866c-12.094488 8.062992-25.801575 16.125984-43.540158 24.188976 13.707087 101.593701-24.995276 332.195276-24.995275 332.195276 68.535433 34.670866 146.746457 54.022047 228.988976 54.022047s159.647244-19.351181 228.988976-54.022047c0 0-38.702362-230.601575-24.995275-332.195276z" fill="#FF7058" p-id="6461"></path><path d="M645.845669 389.44252c5.644094 25.801575-5.644094 68.535433-6.450393 72.566929-25.801575 61.27874-73.373228 114.494488-127.395276 114.494488s-101.593701-53.215748-127.395276-114.494488c-0.806299-3.225197-12.094488-46.765354-6.450393-73.373229h267.691338v0.8063z" fill="#FFFFFF" p-id="6462"></path><path d="M639.395276 462.815748s12.900787-45.959055 6.450393-73.373228h24.995276s-6.450394 48.377953-31.445669 73.373228zM384.604724 462.815748c-24.995276-24.995276-31.445669-73.373228-31.445669-73.373228h24.995276c-6.450394 27.414173 6.450394 73.373228 6.450393 73.373228z" fill="#324A5E" p-id="6463"></path><path d="M416.050394 141.908661l30.63937 193.511811h-107.237795c-4.031496-14.513386-5.644094-29.026772-5.644095-45.152755 0-62.085039 33.058268-116.913386 82.24252-148.359056zM690.192126 291.074016c0 15.319685-2.418898 30.63937-6.450394 45.152756h-106.431496l30.63937-193.511811c49.184252 30.63937 82.24252 85.467717 82.24252 148.359055z" fill="#F1543F" p-id="6464"></path><path d="M685.354331 335.420472h-108.044095l30.63937-193.511811c3.225197-20.15748-12.094488-38.702362-33.058267-38.702362h-125.782678c-20.15748 0-36.283465 18.544882-33.058267 38.702362l30.63937 193.511811H338.645669c-14.513386 0-26.607874 12.094488-26.607874 26.607874s12.094488 26.607874 26.607874 26.607874h346.708662c14.513386 0 26.607874-12.094488 26.607874-26.607874s-12.094488-26.607874-26.607874-26.607874z" fill="#FF7058" p-id="6465"></path></svg>