<?xml version="1.0" encoding="UTF-8"?>
<svg width="480px" height="325px" viewBox="0 0 480 325" version="1.1" xmlns="http://www.w3.org/2000/svg" xmlns:xlink="http://www.w3.org/1999/xlink">
    <!-- Generator: Sketch 47 (45396) - http://www.bohemiancoding.com/sketch -->
    <title>需求方man</title>
    <desc>Created with Sketch.</desc>
    <defs>
        <linearGradient x1="104.353231%" y1="34.422724%" x2="107.800512%" y2="105.598254%" id="linearGradient-1">
            <stop stop-color="#000000" stop-opacity="0" offset="0%"></stop>
            <stop stop-color="#000000" offset="100%"></stop>
        </linearGradient>
        <path d="M23.1932372,4 C18.5265706,9.33333333 14.5265706,13 11.1932372,15 C5.19323725,18 1.34976956,19.24127 0.193237248,23 C-0.65023044,25.74127 1.19323725,28 7.19323725,28 C19.1932372,27 25.1932372,25 37.1932372,19 C41.1932372,16.7282403 41.1932372,10.3949069 37.1932372,0 L23.1932372,4 Z" id="path-2"></path>
        <path d="M25.5462633,3.26917348 C20.5462633,7.26917348 18.5462633,9.26917348 10.5462633,12.2691735 C3.5462633,14.2691735 1.7356867,15.8903267 0.546263297,18.2691735 C-0.453736703,20.2691735 -0.411587879,22.2691735 3.5462633,23.2691735 C16.5462633,23.2691735 28.5462633,21.2691735 38.5462633,17.2691735 C42.5462633,15.2691735 39.5462633,6.26917348 37.5462633,1.26917348 C36.5462633,-1.73082652 28.5462633,1.26917348 25.5462633,3.26917348 Z" id="path-4"></path>
        <path d="M4.57778815,0.884709247 L36.2130366,1.77424483 C34.2130366,30.4409115 32.2130366,51.4409115 30.2130366,64.7742448 C28.2130366,78.1075782 23.2130366,101.774245 15.2130366,135.774245 C12.9698688,137.774245 10.6365355,138.774245 8.21303657,138.774245 C6.14508145,138.774245 3.90007366,137.803433 1.47801322,135.861808 L1.47800329,135.86182 C0.684888817,135.226027 0.267672404,134.231866 0.36952181,133.220486 C3.20663836,105.047471 5.48780995,82.2320578 7.21303657,64.7742448 C6.5463699,49.2185466 5.66795376,27.9220348 4.57778815,0.884709247 Z" id="path-6"></path>
        <path d="M46.6570657,30.4212986 L66.0681786,30.4212986 L66.0681786,30.4213029 C68.8296,30.4213029 71.0681744,32.6598772 71.0681744,35.4212986 C71.0681744,35.4762063 71.0672699,35.5311102 71.0654614,35.5859881 C70.0996803,64.8913362 69.1488721,86.598028 68.2130366,100.706063 C67.4861844,111.663604 62.1528511,134.352998 52.2130366,168.774245 C48.8116357,169.280351 46.4783024,169.280351 45.2130366,168.774245 C43.9477708,168.268139 42.2811041,167.268139 40.2130366,165.774245 C41.670613,147.448738 42.670613,134.782071 43.2130366,127.774245 C44.2107321,114.884545 45.0791733,105.285968 45.2130366,98.7742448 C45.442824,87.5963243 44.2633646,66.6183663 41.6746583,35.840371 L41.6746512,35.8403716 C41.4432075,33.08866 43.4862883,30.6703349 46.2379999,30.4388912 C46.3773809,30.427168 46.5171925,30.4212986 46.6570657,30.4212986 Z" id="path-8"></path>
        <path d="M43.2130366,51.7742448 C47.181882,52.920651 49.8485487,57.5873176 51.2130366,65.7742448 C52.2130366,71.7742448 48.6611726,75.4649711 49.2130366,83.7742448 C49.6071936,89.7089661 52.2130366,92.7742448 52.2130366,97.7742448 C52.2130366,102.774245 51.2074978,106.487896 49.2130366,112.774245 C48.137152,116.165329 46.137152,121.165329 43.2130366,127.774245 C43.8797032,119.774245 44.2130366,109.774245 44.2130366,97.7742448 C44.2130366,85.7742448 43.8797032,70.4409115 43.2130366,51.7742448 Z" id="path-10"></path>
        <path d="M27.3040528,33.1754348 C27.2251978,32.9460158 27.1356146,32.7181011 27.0350754,32.4922865 L14.8641407,5.15591948 C13.0104663,0.992498782 8.12870128,-0.880700631 3.96157597,0.974623093 L5.29022465,0.383070584 C1.12031268,2.23963501 -0.978697341,7.20794882 0.595730365,11.4828813 C0.595730365,11.4828813 4.81414493,23.1781201 7.48961625,29.1873271 C9.06722291,32.7306897 12.621083,38.9467814 12.621083,38.9467814 C13.3860993,40.3299215 14.5083297,41.4401489 15.8217628,42.2232244 C16.0780748,42.7713633 16.3994352,43.3041658 16.7874403,43.8124645 L19.2991646,47.1029009 C19.2991646,47.1029009 20.8335234,50.4213986 21.9182995,51.7141843 C22.8098009,52.7766343 25.7899525,53.9074898 25.7899525,53.9074898 C25.7899525,53.9074898 26.6422858,55.7181737 27.5643195,56.8170107 C27.817322,57.1185273 29.350961,58.2100814 30.5615337,59.5940388 C31.2075917,60.3326287 30.6289991,59.0764441 32.5700595,62.375651 C33.4546449,63.8791747 35.1169618,65.978271 35.9721136,66.9729478 C36.9934355,68.1609067 39.1472425,70.756919 39.1472425,70.756919 C40.285837,71.84835 46.168908,72.0413054 49.9062334,68.905317 L47.9120404,70.5786436 C51.6471045,67.4445527 53.3084465,62.5390929 51.6177008,59.6262306 C51.6177008,59.6262306 48.9630047,57.3881526 48.6488474,57.0137546 C48.1620983,56.4336696 46.821791,55.2462665 46.3350418,54.6661815 C43.3742644,51.1376643 40.6764042,48.2127109 37.7156268,44.6841938 C36.963123,43.7873946 36.9171123,42.1067505 36.1646084,41.2099514 C35.3347176,40.2209259 33.7983335,40.0157454 32.9684426,39.02672 L29.8234814,35.2787012 C29.1076691,34.4256292 28.250056,33.7218897 27.3040528,33.1754348 L27.3040528,33.1754348 Z" id="path-12"></path>
        <path d="M17.7813212,100.884546 C18.8150321,93.1423264 15.9584633,83.1690413 15.4511946,78.8841309 C14.6861298,72.4216117 20.8597614,53.9632991 16.8749527,48.3877576 C16.374863,47.6880326 14.3811611,50.0534757 11.6442897,51.5949699 C10.4770318,52.2524072 9.1411015,52.9439657 7.67426333,52.5346651 C5.9865185,53.9291658 4.22562865,54.9103283 3.11240025,56.2091707 C1.99030766,57.5183553 2.11061777,58.1060153 1.59020599,58.6800029 C-0.241237494,54.7924019 -0.441800458,37.4600417 1.84953454,32.6461459 C2.81165687,30.6248105 3.22266046,28.7721465 5.48489666,26.1534894 C10.0234905,20.8998288 8.8914272,22.0679754 15.4511946,16.9015106 C20.9950527,12.5351747 29.4876263,9.23291457 33.9400282,7.01327375 C39.8155895,4.08415008 53.4848967,0.47217806 63.4848967,0.47217806 C68.9792861,0.47217806 74.9201537,2.4339801 76.2727634,3.47217806 C82.1993944,8.02117377 81.0267794,10.9515783 83.4848967,16.4721781 C84.3022951,18.3079447 85.4848967,17.4721781 85.4848967,19.4721781 C85.4848967,21.4721781 86.4848967,21.4721781 85.4848967,23.4721781 C84.4848967,23.4721781 80.4848967,25.4721781 76.4848967,29.4721781 C75.4848967,31.4721781 75.5960316,31.8460041 75.5960277,32.6461459 C75.5960237,33.4462878 75.5929979,32.0003963 75.5960277,34.4887363 C75.6097801,45.7835809 73.5882932,60.0767345 74.7859837,70.1109282 C75.5960277,76.8974384 77.6825154,84.1190788 77.6826467,89.340799 C73.7533833,96.4510914 65.8778204,101.899207 65.8778204,101.899207 C65.8778204,101.899207 45.8937658,113.81022 31.6104759,113.81022 C19.5249282,113.81022 17.1379136,105.703497 17.7813212,100.884546 Z" id="path-14"></path>
        <path d="M42.1543943,11.7797946 L35.355491,6.09622903 C35.355491,6.09622903 32.448727,7.01849284 31.6689615,10.3676941 C31.161094,12.5490559 32.7619939,15.0835366 32.7619939,15.0835366 C32.7619939,15.0835366 34.8175921,19.4894603 39.4063754,21.0648928 C43.9951587,22.6403253 47.1767056,21.9582391 47.1767056,21.9582391 L47.1767056,17.2197232 L49.7352685,18.581678 C51.8389815,15.9463665 52.942905,10.1201042 52.3046933,7.9850812 C51.5805317,5.56252845 50.4593513,2.47217806 50.4593513,2.47217806 L42.1543943,11.7797946 Z" id="path-16"></path>
        <path d="M1.80404312,14.523053 C3.18615703,16.6744582 5.92782453,18 8.34658188,18 C12.5172537,18 15.8982512,13.8877724 15.8982512,8.81508255 C15.8982512,3.74239272 13.5485387,0.346764767 9.37812909,0.346764763 C8.22259422,0.346764762 6.31150991,0.631208423 4.48389619,1.80963821 C2.65628246,2.988068 0.222727027,5.67787288 0.222727027,8.52980459 C0.222727026,12.1511911 0.833242159,13.0118994 1.80404312,14.523053 Z" id="path-17"></path>
        <path d="M1.61118302,13.2406167 C2.83933209,15.2500237 5.27558309,16.4880763 7.42489551,16.4880763 C11.1309625,16.4880763 14.1353234,12.6472663 14.1353234,7.90938704 C14.1353234,3.17150778 12.0473643,3.72279202e-09 8.34153035,-2.61124455e-13 C7.31471984,-1.0318427e-09 5.61652666,0.265669646 3.99250559,1.36632004 C2.36848453,2.46697043 0.2060225,4.97924127 0.2060225,7.64293815 C0.206022499,11.0253038 0.748527418,11.8292032 1.61118302,13.2406167 Z" id="path-19"></path>
        <linearGradient x1="26.5738857%" y1="4.0490092%" x2="95.8303896%" y2="58.1948995%" id="linearGradient-21">
            <stop stop-color="#F9D5D7" offset="0%"></stop>
            <stop stop-color="#F1ABAE" offset="100%"></stop>
        </linearGradient>
        <path d="M6.33771842,31.0832723 C7.37309755,33.7234076 8.59548324,36.10274 9.58760741,37.1169522 C14.2284502,41.8611158 19.0157314,44.8136649 25.3104265,45.4398644 C26.6512661,45.5732519 29.524482,46.5867297 30.8310136,46.5877544 C34.1994015,46.5903961 36.0354917,45.4398644 37.3728486,43.7448799 C38.7128271,41.6788328 39.1016683,37.7840632 39.2951,34.1408781 C39.4593529,31.0472621 39.9504936,27.6292288 39.8048849,24.3240717 C39.7514876,23.1120115 39.3118608,21.7152255 39.2951,20.5449476 C39.279694,19.4692592 39.2951003,18.5332298 39.2950987,17.5411191 C39.295097,16.600878 39.0683337,15.0985092 38.3912475,13.706373 C38.0583036,13.0734101 37.366986,12.1242672 36.6941365,10.5812596 C35.9394405,8.85055787 34.0360122,1.67713807 30.8310136,0.878055366 C28.3933422,0.270285673 29.6934241,4.78676329 26.4111977,4.78676329 C22.7082088,4.78676329 10.0813367,0.615236273 7.01983954,1.87900247 C1.86241809,4.00795264 3.66393584,12.419646 4.06766259,19.9813437 C1.86778432,20.2621873 0.538924188,22.3510496 0.538924188,24.8862158 C0.538924188,27.6128339 3.20718823,30.6708319 5.7024419,30.9362818 C5.93011395,30.960502 6.14118519,31.0123073 6.33771842,31.0832723 Z" id="path-22"></path>
    </defs>
    <g id="171011_需求方_UI" stroke="none" stroke-width="1" fill="none" fill-rule="evenodd">
        <g id="需求方man">
            <g id="illustartion" transform="translate(0.000000, 2.000000)">
                <path d="M338.987305,298.292969 C295.141602,271.832682 261.188802,251.520833 237.128906,237.357422 C201.039063,216.112305 158.375977,188.447266 117.908203,168.066406 C91.5449219,176.117187 52.3772786,189.375326 0.405273438,207.84082 C86.4985981,239.260533 176.360577,272.269647 269.991211,306.868164 C281.278967,311.039231 291.424503,315.371584 299.329695,317.638184 C310.463343,320.830456 306.410074,306.820912 299.329695,303.835937 C292.89314,301.122389 263.895628,285.117289 235.74707,271.189453 C199.988281,253.496094 134.359375,225.759766 140.027344,220.21875 C145.567861,214.802331 307.855469,299.991211 326.523437,303.835937 C333.706098,305.315229 337.860721,303.467573 338.987305,298.292969 Z" id="Path-3" fill="url(#linearGradient-1)" opacity="0.16"></path>
                <g id="shoes" transform="translate(287.000000, 286.000000)">
                    <g id="Group-62" transform="translate(0.000000, 9.000000)">
                        <mask id="mask-3" fill="white">
                            <use xlink:href="#path-2"></use>
                        </mask>
                        <use id="Path-7" fill="#2C2C2C" transform="translate(20.096619, 14.000000) scale(-1, 1) translate(-20.096619, -14.000000) " xlink:href="#path-2"></use>
                        <path d="M23.1932372,1 C18.5265706,6.33333333 14.5265706,10 11.1932372,12 C5.19323725,15 1.34976956,16.24127 0.193237248,20 C-0.65023044,22.74127 1.19323725,25 7.19323725,25 C19.1932372,24 25.1932372,22 37.1932372,16 C41.1932372,13.7282403 41.1932372,7.39490693 37.1932372,-3 L23.1932372,1 Z" id="Path-7" fill="#333333" mask="url(#mask-3)" transform="translate(20.096619, 11.000000) scale(-1, 1) translate(-20.096619, -11.000000) "></path>
                    </g>
                    <g id="Group-61" transform="translate(34.000000, 0.000000)">
                        <mask id="mask-5" fill="white">
                            <use xlink:href="#path-4"></use>
                        </mask>
                        <use id="Path-7" fill="#2C2C2C" transform="translate(20.258957, 11.634587) scale(-1, 1) translate(-20.258957, -11.634587) " xlink:href="#path-4"></use>
                        <path d="M27.4336232,0.269173477 C22.4336232,4.26917348 20.4336232,6.26917348 12.4336232,9.26917348 C5.4336232,11.2691735 3.6230466,12.8903267 2.4336232,15.2691735 C1.4336232,17.2691735 1.47577202,19.2691735 5.4336232,20.2691735 C18.4336232,20.2691735 26.740234,18.347168 36.740234,14.347168 C40.740234,12.347168 41.4336232,3.26917348 39.4336232,-1.73082652 C38.4336232,-4.73082652 30.4336232,-1.73082652 27.4336232,0.269173477 Z" id="Path-7" fill="#333333" mask="url(#mask-5)" transform="translate(21.202637, 8.634587) scale(-1, 1) translate(-21.202637, -8.634587) "></path>
                    </g>
                </g>
                <g id="legs" transform="translate(283.786963, 121.225755)">
                    <path d="M6.31681006,41.9611352 C6.31681006,31.5605329 10.6638894,22.4724404 10.6638894,22.4724404 L72.5473115,8.36492769 C72.5473115,8.36492769 72.3343096,21.0706386 71.1170085,27.3920539 C69.2217539,37.2340658 66.0634992,46.3273606 66.0634992,46.3273606 L9.83864657,58.5595528 C9.83864657,58.5595528 6.31681006,52.3617374 6.31681006,41.9611352 Z" id="but" fill="#373668" transform="translate(39.432061, 33.462240) rotate(-15.000000) translate(-39.432061, -33.462240) "></path>
                    <g id="Group-63" transform="translate(5.000000, 42.000000)">
                        <mask id="mask-7" fill="white">
                            <use xlink:href="#path-6"></use>
                        </mask>
                        <use id="Rectangle-15" fill="#373668" xlink:href="#path-6"></use>
                    </g>
                    <mask id="mask-9" fill="white">
                        <use xlink:href="#path-8"></use>
                    </mask>
                    <use id="Rectangle-15" fill="#373668" xlink:href="#path-8"></use>
                    <mask id="mask-11" fill="white">
                        <use xlink:href="#path-10"></use>
                    </mask>
                    <use id="Rectangle-15" fill="#1A0242" xlink:href="#path-10"></use>
                </g>
                <g id="arm" transform="translate(340.095390, 52.451510)">
                    <mask id="mask-13" fill="white">
                        <use xlink:href="#path-12"></use>
                    </mask>
                    <use id="Combined-Shape" fill="#E0E7F1" xlink:href="#path-12"></use>
                    <path d="M20.4740274,49.5085613 C18.4334604,45.6433087 18.0634996,42.6514367 16.3332387,38.67243 C15.0763781,35.7820815 15.1887357,36.2808617 13.9175809,32.1712246 C13.4488886,30.6559447 12.6247884,28.3077438 12.1304991,24.4203647 C11.8831318,22.4749239 11.5559449,18.6695009 11.0562834,17.6092738 C9.83316453,15.0139487 9.27126035,15.5949635 9.68084203,18.2119455 C9.79883415,18.9658446 10.3548602,25.307068 9.44952483,29.8734817 C8.27939024,35.775514 5.98120532,42.8900007 7.48961625,46.2779471 C9.06722291,49.8213097 12.621083,56.0374014 12.621083,56.0374014 C13.3860993,57.4205415 14.5083297,58.530769 15.8217628,59.3138445 C16.0780748,59.8619833 16.3994352,60.3947859 16.7874403,60.9030846 L19.2991646,64.1935209 C19.2991646,64.1935209 20.8335234,67.5120186 21.9182995,68.8048044 C22.8098009,69.8672544 26.1874088,80.9345168 26.1874088,80.9345168 C26.1874088,80.9345168 27.0397421,82.7452007 27.9617758,83.8440377 C28.2147783,84.1455543 29.7484173,85.2371085 30.95899,86.6210658 C31.605048,87.3596557 31.0264553,86.1034711 32.9675157,89.402678 C33.8521012,90.9062018 35.5144181,93.005298 36.3695699,93.9999748 C37.3908918,95.1879338 39.5446988,97.783946 39.5446988,97.783946 C40.6832932,98.8753771 46.5663643,99.0683324 50.3036897,95.932344 L48.3094967,97.6056706 C52.0445608,94.4715798 53.7059028,89.5661199 52.015157,86.6532577 C52.015157,86.6532577 49.360461,84.4151797 49.0463037,84.0407816 C48.5595546,83.4606966 47.2192472,82.2732935 46.7324981,81.6932085 C43.7717207,78.1646914 41.0738605,75.239738 38.1130831,71.7112208 C37.3605792,70.8144216 37.3145686,69.1337776 36.5620647,68.2369784 C35.7321738,67.247953 34.1957898,67.0427724 33.3658989,66.053747 L26.1874084,62.8945068 C25.618531,62.2165452 21.1859119,56.5828125 20.9917255,56.4706415 C20.9128705,56.2412225 21.4006016,51.2636828 20.4740274,49.5085613 Z" id="Combined-Shape" fill="#CFD5DB" mask="url(#mask-13)"></path>
                </g>
                <g id="clothes" transform="translate(226.090620, 11.116057)">
                    <g id="Group" transform="translate(48.424483, 34.411765)">
                        <g id="Group-6" transform="translate(0.000000, 0.000000)">
                            <mask id="mask-15" fill="white">
                                <use xlink:href="#path-14"></use>
                            </mask>
                            <use id="Rectangle-6" fill="#CDD6E2" xlink:href="#path-14"></use>
                            <path d="M-0.580983103,57.5336045 C1.50526005,63.2104413 7.9502065,51.7957411 11.0046549,53.5277782 C12.1360234,54.1693252 11.865969,49.379513 12.61123,45.216226 C13.1951687,41.9541411 14.8142622,38.9955304 15.4713958,39.8771933 C16.3572666,41.0657483 18.5077723,43.8220452 19.6223069,45.216226 C23.8907439,50.5556498 28.4848769,55.1321222 34.0241515,55.1321222 C41.3880297,55.1321222 52.9489637,51.5503951 62.0028946,46.1485647 C69.0100671,41.9678881 76.0330115,37.489976 76.0330115,33.659261 C76.0330115,30.5960908 74.5195611,22.0680323 74.6846928,15.4709118 C74.7625291,12.3612968 76.7922331,30.9382108 79.4442606,29.1646228 C80.6350163,28.3682848 87.6311355,27.5011916 88.2158446,23.203658 C89.2053791,15.9307113 86.159827,3.63370186 85.5715377,1.91033547 C84.2160533,-2.06049397 69.1883278,-10.1669316 65.9652342,-10.1669316 C54.770273,-10.1669316 -0.580983089,19.1598646 -0.580983089,27.9402263 C-0.580983089,29.3155414 -1.95660102,53.7904366 -0.580983103,57.5336045 Z" id="Oval-8" fill="#E0E7F1" mask="url(#mask-15)"></path>
                            <g id="Combined-Shape" mask="url(#mask-15)">
                                <use fill="#80ADF9" fill-rule="evenodd" xlink:href="#path-16"></use>
                                <path stroke-opacity="0.552706069" stroke="#7998D3" stroke-width="1" d="M35.2619104,6.66969351 C35.1810724,6.70581977 35.0867291,6.75111401 34.9813097,6.80621478 C34.5649271,7.02385023 34.1473923,7.31069699 33.7581429,7.67405362 C32.9890913,8.39194804 32.4271872,9.31601612 32.1559373,10.4810724 C32.1038323,10.7048706 32.0756546,10.9412775 32.0703506,11.1892127 C32.053534,11.9753022 32.2637057,12.8391689 32.6269033,13.7064563 C32.7506457,14.0019435 32.8833014,14.2760124 33.0155846,14.5209233 C33.0937913,14.6657163 33.1532876,14.7667484 33.2151052,14.872136 C33.3012422,15.0567602 33.4844373,15.3943648 33.7673388,15.8336049 C34.2422003,16.570887 34.8223321,17.3088895 35.5095535,17.9967269 C36.6753949,19.1636135 38.0265914,20.0625349 39.5687345,20.5919874 C42.3415695,21.543964 44.7604691,21.7489809 46.628061,21.5349372 C46.644685,21.5330319 46.6609007,21.5311309 46.6767056,21.5292378 L46.6767056,16.3871404 L49.5903083,17.9380872 C51.3193592,15.4361129 52.4434786,10.1951557 51.8256386,8.12828261 C51.7037329,7.72046901 51.5656587,7.27742664 51.4135809,6.80458543 C51.3471849,6.59814656 51.278367,6.38680134 51.2073526,6.17111118 C50.9409491,5.36197068 50.6553403,4.52659359 50.3697149,3.71256633 C50.3361561,3.61692424 50.3034034,3.52388107 50.2715474,3.43366092 L42.2051495,12.4739171 L35.2619104,6.66969351 Z"></path>
                            </g>
                        </g>
                        <path d="M8.94002514,82.0062615 C9.71662578,84.3187232 10.257763,85.9350893 10.257763,85.9350893 C10.3047064,86.1102844 10.9797255,86.5972158 12.0580422,87.0991805 C13.0738232,88.5753907 14.507316,89.8016908 16.2915519,90.5951309 C16.2915519,90.5951309 19.0949445,91.9193673 21.6192345,92.8381338 C24.1111599,93.7451205 28.7395571,96.3900675 28.7395571,96.3900675 C28.7395571,96.3900675 33.0864868,98.9849985 35.8723632,99.9324203 C37.1278571,100.359389 39.3999946,100.286367 40.9111685,100.820172 C45.7072334,102.514327 51.4650913,105.057691 55.7807676,106.463846 C57.5843297,107.051492 60.7685591,107.90863 61.8603849,108.205088 C63.0073323,108.516513 67.9648986,91.9532834 67.751601,91.8483204 C67.2454588,91.5992498 65.8538334,91.4871986 64.2082105,90.8036775 C61.0927443,89.5096466 56.3656564,87.6633454 51.0700265,85.7767239 C49.9716301,85.3854091 48.6183171,85.1294198 47.5053279,84.7243248 C45.4957311,83.9928914 43.5454036,83.02241 42.1997052,82.5481909 C36.5090008,80.5428083 36.1132041,80.8193967 32.1708222,79.1430212 C30.5370597,78.4483144 28.9155791,77.3164347 27.446036,76.8291288 C26.932491,76.6588354 26.1798269,76.4403869 25.4803197,76.2158574 C25.2558014,75.4407667 24.8493773,73.9431958 24.4462604,71.9793867 C24.0425991,70.0129255 22.6865719,65.4121363 22.6865719,65.4121363 C22.6865719,65.4121363 23.0669612,63.6918941 22.659234,62.2339215 C22.1203627,60.3069969 20.7277323,58.3777286 20.4171706,56.9426156 C19.3191199,51.8684966 18.6037526,50.1748473 16.7838797,47.2778322 C13.1060864,48.263294 13.4260561,48.5182962 10.4657565,50.1716536 C9.75369063,50.5693496 7.75949003,52.0045567 6.74299128,52.8154437 C5.49661055,53.8097135 4.37642686,54.8837103 4.37642686,54.8837103 C4.37642686,54.8837103 2.71483674,56.1308699 1.58493858,58.5670227 C1.94322845,59.9041787 3.72304682,65.3662898 3.72304682,65.3662898 C3.72304682,65.3662898 4.67798831,69.3893941 5.25796207,71.0946716 C6.41020583,74.4825753 7.88455375,78.8634556 8.93298836,81.9853084 L8.62478095,82.6178595 C8.72387395,82.4144855 8.82914654,82.2105052 8.94002514,82.0062615 Z" id="right-arm" fill="#E0E7F1"></path>
                    </g>
                    <circle id="Oval-9" fill="#A071FF" cx="116.786963" cy="66.3751987" r="1.9872814"></circle>
                    <circle id="Oval-9" fill="#5AAF3A" cx="158.519873" cy="2.38473768" r="2.38473768"></circle>
                    <circle id="Oval-9" fill="#E9456E" cx="3.57710652" cy="108.577107" r="3.57710652"></circle>
                    <circle id="Oval-9" fill="#FBD459" cx="22.9872814" cy="69.1573927" r="1.9872814"></circle>
                    <circle id="Oval-9" fill="#7DD9EB" cx="174.81558" cy="50.0794913" r="3.17965024"></circle>
                </g>
                <g id="Group-3" transform="translate(331.351351, 136.712242)">
                    <mask id="mask-18" fill="white">
                        <use xlink:href="#path-17"></use>
                    </mask>
                    <use id="Oval-13" fill="#80ADF9" xlink:href="#path-17"></use>
                    <path d="M4.5748133,14.6089082 C6.01683786,16.4438723 9.20551169,17 11.8149472,17 C16.3144061,17 19.0997886,14.3370296 19.0997886,9.50681005 C19.0997886,4.67659053 14.0768454,1.82835771 12.1322755,1.39200728 C11.3068758,1.20679229 10.0066067,1.14633521 9.19188073,1.39200728 C5.66487588,2.45553853 2.65348703,5.58298115 2.65348703,9.50680975 C2.65348703,11.535771 3.13278875,12.7739441 4.5748133,14.6089082 Z" id="Oval-13" fill="#7998D3" mask="url(#mask-18)"></path>
                </g>
                <g id="Group-3" transform="translate(385.628321, 118.705424) rotate(40.000000) translate(-385.628321, -118.705424) translate(378.128321, 110.205424)">
                    <mask id="mask-20" fill="white">
                        <use xlink:href="#path-19"></use>
                    </mask>
                    <use id="Oval-13" fill="#80ADF9" xlink:href="#path-19"></use>
                    <path d="M4.13801501,13.9409011 C5.40157202,15.7157428 8.19560989,16.2536491 10.482097,16.2536491 C14.4246949,16.2536491 16.8653534,13.6779305 16.8653534,9.00597251 C16.8653534,4.3340145 12.4640587,1.57910367 10.7601521,1.1570502 C10.0369054,0.97790375 8.89755998,0.91942754 8.18366592,1.15705019 C5.09316949,2.18573498 2.4544755,5.21070736 2.4544755,9.00597223 C2.4544755,10.9684548 2.87445799,12.1660593 4.13801501,13.9409011 Z" id="Oval-13" fill="#7998D3" mask="url(#mask-20)"></path>
                </g>
                <g id="laptop" transform="translate(324.286169, 85.645469)">
                    <path d="M28.3539129,62.478264 C27.0796896,60.5622366 27.3280055,57.4402463 30.3701963,56.8057831 C33.6996233,57.4985663 51.6660028,57.9056385 84.2693348,58.0269997 L84.2693348,58.0270004 C86.4469533,58.0351063 88.449234,59.2224482 89.5009085,61.1292961 L101.724597,83.2927271 L101.724597,83.2927271 C103.858377,87.1615984 102.451807,92.0277084 98.5829359,94.161488 C97.3949477,94.8166934 96.0598454,95.1590126 94.7031574,95.1562605 L51.3309066,95.0682755 L51.3309066,95.0682788 C48.4620375,95.062459 45.8159231,93.5209028 44.3958913,91.0281225 C38.8965235,81.3743135 33.5491974,71.857694 28.3539129,62.478264 Z" id="Rectangle-10" fill="#7A7A7A" transform="translate(65.174915, 75.981030) rotate(-30.000000) translate(-65.174915, -75.981030) "></path>
                    <path d="M29.3616612,55.2316979 L84.0866806,55.2316979 L84.0866806,55.2316979 C86.9626139,55.2316979 89.6172358,56.7753869 91.0396623,59.2749258 L107.65496,88.4719216 L107.65496,88.4719216 C108.201276,89.4319281 107.865914,90.6530439 106.905907,91.1993601 C106.604452,91.3709109 106.263564,91.4611147 105.916714,91.4611147 L51.1916947,91.4611147 L51.1916947,91.4611147 C48.3157614,91.4611147 45.6611395,89.9174257 44.238713,87.4178867 L27.6234157,58.2208909 L27.6234157,58.2208909 C27.0770995,57.2608845 27.4124617,56.0397687 28.3724681,55.4934525 C28.6739234,55.3219017 29.0148111,55.2316979 29.3616612,55.2316979 Z" id="Rectangle-10" fill="#B8B8B8" transform="translate(67.639188, 73.346406) rotate(-30.000000) translate(-67.639188, -73.346406) "></path>
                    <g id="left-hand" transform="translate(54.759936, 26.629571)" fill="#F6C7C2">
                        <path d="M13.9538951,22.7249603 C18.9614312,23.794531 24.2069087,29.5749726 26.4261791,29.5749726 C30.4870963,29.5749726 30.7224682,28.4655986 30.7224682,25.0632084 C30.7224682,21.6608183 21.9538951,11.7249603 16.9538951,10.7249603 C11.9538951,9.72496025 8.95389507,14.3225701 8.95389507,17.7249603 C8.95389507,19.2679617 8.94635895,21.6553895 13.9538951,22.7249603 Z" id="Oval-14"></path>
                        <path d="M9.00873997,19.5013756 C8.89304294,18.0588426 9.85465434,17.3916861 11.1709366,18.0180818 L11.8347856,18.3339959 C13.1446309,18.9573283 14.2064703,20.6279769 14.2064703,22.0836681 L14.2064703,27.1754734 C14.2064703,28.6230277 13.0348494,29.7965024 11.5875272,29.7965024 L12.4533942,29.7965024 C11.0069919,29.7965024 9.74075835,28.6283222 9.62496317,27.1845654 L9.00873997,19.5013756 Z" id="Rectangle-12"></path>
                        <path d="M0.607427675,13.1799156 C0.774630982,10.0687791 3.43318863,7.48400068 6.54177472,7.40674371 L17.9431471,7.12338806 C21.0533931,7.04608983 23.7070552,9.50294559 23.8709933,12.6247532 L23.8780188,12.7585369 C24.0416318,15.8741552 21.6447563,18.3998629 18.5378761,18.3998629 L5.96327982,18.3998629 C2.85038743,18.3998629 0.46217328,15.8826509 0.629637915,12.7666518 L0.607427675,13.1799156 Z" id="Rectangle-13" transform="translate(12.246674, 12.760738) rotate(50.000000) translate(-12.246674, -12.760738) "></path>
                    </g>
                    <path d="M49.4773195,64.0643683 C48.3823101,62.1401786 49.2834586,60.5803146 51.4912766,60.5803146 L62.3583089,60.5803146 C63.4633221,60.5803146 64.8027219,61.3598414 65.34869,62.3192362 L67.9115944,66.8228636 C69.0066038,68.7470533 68.1054553,70.3069173 65.8976373,70.3069173 L55.0306049,70.3069173 C53.9255918,70.3069173 52.5861919,69.5273904 52.0402238,68.5679956 L49.4773195,64.0643683 Z" id="Rectangle-10" fill="#E3E3E3" transform="translate(58.694457, 65.443616) rotate(-30.000000) translate(-58.694457, -65.443616) "></path>
                    <path d="M45.5698709,74.4182462 C44.9614084,73.044888 45.8387331,70.7726316 48.518267,70.7426267 C57.1493626,70.8404727 66.3855379,71.0878526 76.226793,71.4847665 L76.2267937,71.4847486 C76.9164729,71.5125645 77.543066,71.8940368 77.8844563,72.49394 L85.0407399,85.069218 L85.0407399,85.069218 C86.1333723,86.9892309 85.4626479,89.4314625 83.5426351,90.5240949 C82.9397245,90.8671966 82.2579491,91.0476041 81.564249,91.0476041 L55.7501413,91.0476041 L55.7501413,91.0476008 C55.0376556,91.0476008 54.3789691,90.6685635 54.0209621,90.0525548 C51.2272706,85.2455595 48.4102402,80.0341233 45.5698709,74.4182462 Z" id="Rectangle-10" fill="#33343A" transform="translate(65.475279, 80.895115) rotate(-30.000000) translate(-65.475279, -80.895115) "></path>
                    <path d="M46.1626482,73.3148065 C45.06951,71.3939048 45.9788697,69.8367063 48.1814845,69.8367063 L76.0333803,69.8367063 C77.1327268,69.8367063 78.466184,70.6138627 79.0095933,71.5687611 L87.151598,85.8761835 C88.2447362,87.7970852 87.3353765,89.3542838 85.1327617,89.3542838 L57.2808659,89.3542838 C56.1815194,89.3542838 54.8480622,88.5771274 54.3046529,87.622229 L46.1626482,73.3148065 Z" id="Rectangle-10" fill="#5F6067" transform="translate(66.657123, 79.595495) rotate(-30.000000) translate(-66.657123, -79.595495) "></path>
                    <path d="M72.3303022,53.6528299 L127.061462,53.6528299 L127.061462,53.6528299 C128.166031,53.6528299 129.061462,54.5482604 129.061462,55.6528299 C129.061462,56.1622259 128.86709,56.6524256 128.518007,57.0234048 L109.712252,77.0087686 L109.712252,77.0087686 C108.200415,78.6154364 106.092205,79.5264691 103.88607,79.5264691 L49.1549105,79.5264691 L49.1549105,79.5264691 C48.050341,79.5264691 47.1549105,78.6310386 47.1549105,77.5264691 C47.1549105,77.0170732 47.3492824,76.5268734 47.6983651,76.1558943 L66.5041205,56.1705305 L66.5041205,56.1705305 C68.0159571,54.5638626 70.1241673,53.6528299 72.3303022,53.6528299 Z" id="Rectangle-10" fill="#FFFFFF" transform="translate(88.108186, 66.589650) scale(-1, -1) rotate(-30.000000) translate(-88.108186, -66.589650) "></path>
                    <path d="M73.1252148,54.4477425 L127.856374,54.4477425 L127.856374,54.4477425 C128.960944,54.4477425 129.856374,55.343173 129.856374,56.4477425 C129.856374,56.9571384 129.662002,57.4473382 129.31292,57.8183174 L110.507164,77.8036811 L110.507164,77.8036811 C108.995328,79.410349 106.887117,80.3213817 104.680982,80.3213817 L49.949823,80.3213817 L49.949823,80.3213817 C48.8452535,80.3213817 47.949823,79.4259512 47.949823,78.3213817 C47.949823,77.8119858 48.144195,77.321786 48.4932776,76.9508068 L67.2990331,56.9654431 L67.2990331,56.9654431 C68.8108696,55.3587752 70.9190798,54.4477425 73.1252148,54.4477425 Z" id="Rectangle-10" fill="#DADCDD" transform="translate(88.903099, 67.384562) scale(-1, -1) rotate(-30.000000) translate(-88.903099, -67.384562) "></path>
                </g>
                <g id="right-hand" transform="translate(333.736089, 138.302067)">
                    <path d="M25.2961052,10.7196987 C26.5414335,10.7196987 26.6482018,10.7422758 27.7338977,10.7196988 C28.6991188,10.6996271 29.9116059,12.5088619 30.4933551,12.701239 C31.6217467,13.0743838 31.6290296,11.8991877 31.6290296,11.2706607 C31.6290296,10.4949159 31.0363505,9.19417351 29.954705,8.44510271 C28.8730594,7.69603191 27.3092488,6.92870737 25.2961052,6.4075855 C23.5847224,5.96457733 19.1721112,4.86194183 17.7409346,5.22675365 C16.0257986,5.6639477 13.7250572,8.73286761 13.7250572,9.4508278 C13.7250572,10.7678821 20.7961699,10.7196987 25.2961052,10.7196987 Z" id="Oval-12" fill="url(#linearGradient-21)"></path>
                    <path d="M15.5515086,16.7343102 C16.9247598,18.1673603 19.4334324,18.6093375 21.263911,19.6979332 C23.7918827,21.201332 25.662002,27.0346177 28.2784175,27.0346177 C31.57585,27.0346177 33.1056396,24.4526524 33.886588,20.4707336 C34.4850556,17.4192525 31.7846637,11.4758299 30.7620386,10.8536396 C27.8291717,9.06921104 21.4608431,5.27640325 17.8636401,5.27640325 C11.0588598,5.27640325 12.1352321,7.9141513 12.1352321,13.7311409 C12.1352321,15.6920084 13.8888048,14.9992031 15.5515086,16.7343102 Z" id="Oval-11" fill="#F6C7C2"></path>
                    <rect id="Rectangle-11" fill="#F6C7C2" transform="translate(13.123053, 9.417804) rotate(20.000000) translate(-13.123053, -9.417804) " x="1.99427698" y="3.44612944" width="22.2575517" height="11.9433498" rx="5.9716749"></rect>
                </g>
                <g id="cards" transform="translate(404.000000, 36.000000)">
                    <g id="Group-5" transform="translate(39.745628, 0.000000)">
                        <path d="M6.27869791,18.540974 C7.02840861,15.3172179 9.95445597,11.3577453 12.832054,9.68688197 L27.0825738,1.41238661 C29.9521817,-0.253837343 31.6679031,1.02080955 30.9209873,4.23254789 L25.6868043,26.7395347 C24.9370936,29.9632907 22.0110462,33.9227633 19.1334482,35.5936267 L4.8829284,43.868122 C2.01332048,45.534346 0.297599039,44.2596991 1.04451493,41.0479608 L6.27869791,18.540974 Z" id="Rectangle-14" fill="#9982E3"></path>
                        <path d="M10.2532607,20.1307991 C11.0029714,16.9070431 13.9290188,12.9475705 16.8066168,11.2767071 L31.0571366,3.00221173 C33.9267445,1.33598778 35.6424659,2.61063467 34.8955501,5.82237301 L29.6613671,28.3293598 C28.9116564,31.5531158 25.985609,35.5125884 23.108011,37.1834518 L8.8574912,45.4579472 C5.98788327,47.1241711 4.27216184,45.8495242 5.01907773,42.6377859 L10.2532607,20.1307991 Z" id="Rectangle-14" fill="#B28FFD" opacity="0.56"></path>
                    </g>
                    <g id="Group-5" transform="translate(0.000000, 23.052464)">
                        <path d="M6.27869791,18.540974 C7.02840861,15.3172179 9.95445597,11.3577453 12.832054,9.68688197 L27.0825738,1.41238661 C29.9521817,-0.253837343 31.6679031,1.02080955 30.9209873,4.23254789 L25.6868043,26.7395347 C24.9370936,29.9632907 22.0110462,33.9227633 19.1334482,35.5936267 L4.8829284,43.868122 C2.01332048,45.534346 0.297599039,44.2596991 1.04451493,41.0479608 L6.27869791,18.540974 Z" id="Rectangle-14" fill="#E62555"></path>
                        <path d="M10.2532607,20.1307991 C11.0029714,16.9070431 13.9290188,12.9475705 16.8066168,11.2767071 L31.0571366,3.00221173 C33.9267445,1.33598778 35.6424659,2.61063467 34.8955501,5.82237301 L29.6613671,28.3293598 C28.9116564,31.5531158 25.985609,35.5125884 23.108011,37.1834518 L8.8574912,45.4579472 C5.98788327,47.1241711 4.27216184,45.8495242 5.01907773,42.6377859 L10.2532607,20.1307991 Z" id="Rectangle-14" fill="#FF7E9F" opacity="0.56"></path>
                    </g>
                </g>
                <g id="DOTS" transform="translate(232.000000, 0.000000)" stroke="#ABCCF4" stroke-width="4">
                    <rect id="Rectangle-16" x="160.982512" y="2" width="2.35930048" height="2.35930048"></rect>
                    <rect id="Rectangle-16" x="41.745628" y="172.9062" width="2.35930048" height="2.35930048"></rect>
                    <rect id="Rectangle-16" x="9.9491256" y="208.677266" width="2.35930048" height="2.35930048" rx="1.17965024"></rect>
                    <rect id="Rectangle-16" x="2" y="105.338633" width="1" height="1" rx="0.5"></rect>
                    <rect id="Rectangle-16" x="37.7710652" y="37.7710652" width="2.35930048" height="2.35930048" rx="1.17965024"></rect>
                </g>
                <g id="head" transform="translate(296.000000, 4.000000)">
                    <path d="M14,37.4953852 C14,33.908083 16.9174538,31 20.5,31 L20.5,31 C24.0898509,31 27,33.906689 27,37.499865 L27,51.4219879 C27,55.0117642 24.2905981,56.8743489 20.9376937,55.5780553 L20.0623063,55.2396146 C16.714187,53.945171 14,49.9882216 14,46.4004319 L14,37.4953852 Z" id="neck" fill="#E49397"></path>
                    <g id="Group-7" transform="translate(4.000000, 5.000000)">
                        <mask id="mask-23" fill="white">
                            <use xlink:href="#path-22"></use>
                        </mask>
                        <use id="head" fill="#F6C7C2" xlink:href="#path-22"></use>
                        <path d="M10.0367843,39.1407354 C12.5333151,41.5403601 15.3007556,43.5987824 18.1844602,45.1324439 C21.1194361,46.6933734 26.4658528,47.2867496 27.272946,47.413234 C28.0800392,47.5397184 29.6853819,48.1751404 30.541281,48.1448719 C30.8174357,48.1351058 32.5038037,48.1944276 33.5735766,47.8832122 C35.2435991,47.397374 36.5013211,46.401074 36.9266911,45.8466113 C38.4911112,43.8074163 38.0867431,43.0600491 38.4817988,40.9470795 C38.8768546,38.8341099 39.5222379,35.6400088 39.3671829,32.915711 C39.2456046,30.7795967 34.1512587,30.0446173 32.8715139,30.6636504 C30.843704,31.6445346 28.1415475,35.4850396 25.820523,37.9398249 C23.4994984,40.3946102 21.3113068,39.8262201 19.377249,39.1407354 C15.9889451,37.9398249 14.386734,34.7419465 13.4065157,32.4733067 C12.0263103,29.2789273 11.3250101,23.6684571 9.3778769,24.5888986 C7.43074367,25.5093401 8.05623087,28.0266504 8.05623087,30.6636505 C8.05623087,31.3947451 7.54025353,36.7411108 10.0367843,39.1407354 Z" id="Oval-7" fill-opacity="0.5" fill="#EA8190" mask="url(#mask-23)"></path>
                    </g>
                    <path d="M33.5385923,39.0307966 C33.8175065,39.1411017 34.3455381,39.7782489 34.9769217,40.1484013 C35.6083053,40.5185537 36.5643235,41.0216906 37.4631438,41.1418918 C38.0411885,41.219195 38.5618851,41.146352 39.1492952,41.0415425 C39.7367053,40.936733 40.2334881,40.5373974 40.6991569,40.5373973 C41.0194072,40.5373972 41.0520127,40.8718511 40.9449478,41.0009742 C40.8066279,41.1677917 40.4878551,41.3653221 40.1403954,41.5161195 C39.8704275,41.6332856 39.467099,41.7679568 39.3224061,41.8082482 C38.6865985,41.9852959 38.4752558,42.0420589 37.2493321,41.9688582 C37.0106073,41.9546038 36.2838263,41.7285281 35.5949809,41.4191677 C35.161912,41.2246765 34.7544864,40.9799081 34.4613041,40.7830301 C33.8771052,40.3907283 33.2655457,39.8627036 33.0608881,39.5372166 C32.8562304,39.2117296 33.2060452,38.8992808 33.5385923,39.0307966 Z" id="Rectangle-7" fill="#6B2656" transform="translate(37.000000, 40.500000) rotate(-30.000000) translate(-37.000000, -40.500000) "></path>
                    <rect id="Rectangle-2" fill="#47283E" transform="translate(26.500000, 27.000000) rotate(-15.000000) translate(-26.500000, -27.000000) " x="23" y="26" width="7" height="2" rx="1"></rect>
                    <rect id="Rectangle-2" fill="#47283E" transform="translate(41.000000, 21.000000) rotate(-30.000000) translate(-41.000000, -21.000000) " x="38" y="20" width="6" height="2" rx="1"></rect>
                    <path d="M5.13997779,8.96165333 C2.19361381,9.21071943 0,15.0075851 0,19.7365499 C0,21.9292491 1.2344806,27.1373094 2.50532371,29.6326673 C3.77616681,32.1280253 7.2426827,37.6382739 8.9064017,37.6382739 C9.38695931,37.6382739 12.8360808,42.3840777 13.2781308,41.9749951 C13.797934,41.493958 12.9725608,38.9418004 10.9580343,36.2866639 C10.8185594,36.1028366 8.44754004,35.8743732 6.55855694,34.2070327 C4.66957385,32.5396923 4.45977368,29.8782055 4.71947135,28.586831 C5.08932567,26.7476908 6.51736768,25.6144574 7.35613655,25.3901818 C7.7054003,25.2967933 9.70254332,24.7073765 10.9580343,25.9268473 C11.9665355,26.9064145 12.0978905,28.1068519 12.160079,28.347574 C12.5417197,29.8248443 13.3823651,31.4681399 13.9271904,31.8588093 C15.1954675,32.7682331 15.7678155,32.5890992 16.229266,32.3658938 C17.3077804,31.8442121 14.4091846,27.8221513 13.3823651,24.9462446 C12.5040793,22.4863501 12.160079,20.0025905 12.160079,19.2945776 C12.160079,14.6780783 16.1460729,14.3069063 15.518971,12.8863105 C14.6920025,11.9298682 12.8496237,12.3960017 9.42437455,11.0015831 C9.61098049,11.0350616 9.80514671,11.0682966 10.0071548,11.1013644 C12.4745541,11.5052667 17.453783,11.9458451 22.1394353,11.8544512 C27.4991342,11.74991 32.485399,11.0648593 33.0725514,10.8186595 C34.885324,9.84041072 36.3111331,8.47281123 37.0345132,7.46023656 C37.125843,7.27796277 38.0140871,8.71352994 37.9998302,8.25959009 C37.9400807,6.35715405 35.727489,1.22523052 32.0062558,0.333212434 C27.7927711,-0.676803424 23.9037981,0.931412556 20.5377756,0.931412556 C11.1852466,0.931412556 5.04396975,4.96386299 5.04396975,8.2595902 C5.04396975,8.51445331 5.07163442,8.74729925 5.13997779,8.96165333 Z" id="Combined-Shape" stroke="#4F2442" fill="#6B2656"></path>
                    <path d="M9.62648463,34 C10.2259325,34 10.7954886,33.8778661 10.8252815,33.2863261 C10.8520252,32.7553281 10.1642097,31.8935543 10.5932207,30.8570096 C11.5001568,28.6657381 10.7640291,28 9.62648463,28 C8.48894016,28 7,29.2561917 7,31.1020388 C7,32.9478858 8.81171281,34 9.62648463,34 Z" id="Oval-6" fill="#EB6B8F" transform="translate(9.000000, 31.000000) rotate(-20.000000) translate(-9.000000, -31.000000) "></path>
                    <path d="M33.510108,28.0182865 C33.6381693,26.3515018 35.101693,25.0003057 36.7688029,25.0003057 L35.330226,25.0003057 C37.0018922,25.0003057 38.4430547,26.3527392 38.5488441,28.0161986 L39.0058542,35.202346 C39.1117817,36.8679777 37.8488538,38.116968 36.1878221,37.9922541 L35.7733792,37.9611368 C34.1110955,37.8363288 32.8673318,36.3843568 32.9954238,34.7171712 L33.510108,28.0182865 Z" id="Rectangle" fill="#EB6B8F" transform="translate(35.999207, 31.500572) rotate(-20.000000) translate(-35.999207, -31.500572) "></path>
                    <circle id="Oval-10" fill="#47283E" cx="28" cy="31" r="1"></circle>
                    <circle id="Oval-10" fill="#47283E" cx="40" cy="26" r="1"></circle>
                    <g id="glasses" transform="translate(7.000000, 22.000000)">
                        <ellipse id="Oval-10" fill="#FFFFFF" cx="19.9459772" cy="10.4716812" rx="1" ry="1.2082709"></ellipse>
                        <ellipse id="Oval-10" fill="#FFFFFF" cx="32.1121381" cy="5.23584058" rx="1" ry="1.2082709"></ellipse>
                        <path d="M20.8053694,15.0254285 C23.8025838,15.7473408 27.0102805,13.6511261 27.9969541,9.91242992 C28.263198,8.90358073 27.8018705,6.49741477 25.2594074,5.86490416 C21.6884562,4.97652767 19.429536,6.25170506 18.2068203,8.75382892 C17.2739668,10.6627888 17.808155,14.3035162 20.8053694,15.0254285 Z" id="Oval-5" stroke="#F4FAFF" fill-opacity="0.33" fill="#F0F8FF" transform="translate(22.926496, 10.374662) rotate(-30.000000) translate(-22.926496, -10.374662) "></path>
                        <path d="M-0.401604353,8.57854402 C-0.401604353,8.57854402 -0.311054226,8.00203921 -0.138592863,7.58088285 C0.0338685001,7.15972648 0.502864648,6.75973148 0.762652689,6.6255562 C1.11299711,6.44461038 1.60656476,6.36254391 1.90170314,6.36253088 C4.29253334,6.3624254 12.2335284,6.70506079 16.3609047,6.70506079 C17.3386292,6.70506079 18.3918833,5.94914513 18.3918833,5.94914513 L18.9462759,6.97800638 C18.9462759,6.97800638 17.5158952,7.77040117 16.7881332,7.77040117 C12.4567134,7.77040117 4.55743629,7.45775227 1.9017032,7.34728985 C1.33189248,7.32358917 1.1002166,7.49459453 0.762652689,7.66098995 C0.540691878,7.77040112 0.0842866587,8.03348837 -0.401604353,8.57854402 Z" id="Rectangle-5" fill="#F4FAFF" transform="translate(9.272336, 7.263845) rotate(30.000000) translate(-9.272336, -7.263845) "></path>
                        <path d="M7.3833479,3.86456856 C7.3833479,4.2000538 7.71430442,4.45492239 7.71430442,4.45492239 C5.98681991,4.39213502 3.40695997,4.42216777 2.52038738,4.38529172 C1.95057666,4.36159104 1.71890078,4.5325964 1.38133687,4.69899182 C1.15937606,4.80840299 0.702970837,5.07149024 0.217079826,5.61654589 C0.217079826,5.61654589 0.247801146,4.98422527 0.420262509,4.5630689 C0.592723872,4.14191254 1.02032289,3.72144669 1.26056994,3.58238465 C1.71658517,3.31842967 2.22524908,3.18480877 2.52038746,3.18479575 C3.38299909,3.18475769 5.69411842,3.30433063 7.56193817,3.36133572 C7.56193817,3.36133572 7.3833479,3.52908331 7.3833479,3.86456856 Z" id="Rectangle-5" fill="#47283E" transform="translate(3.965692, 4.400671) rotate(30.000000) translate(-3.965692, -4.400671) "></path>
                        <path d="M36.1648644,9.12313525 C38.335836,8.40472465 39.3987194,6.11591382 39.3987193,4.03204389 C39.3987192,1.94817395 37.7021418,-0.0792677696 35.7158008,0.247483203 C32.001598,0.858465603 31.6413021,3.99308421 31.6504606,5.16265115 C31.6676979,7.36391969 33.5795103,9.97867193 36.1648644,9.12313525 Z" id="Oval-5" stroke="#F4FAFF" fill-opacity="0.33" fill="#F0F8FF"></path>
                        <path d="M26.5059297,5.90157628 C27.9440001,5.04594657 28.7905928,4.87178006 29.7782795,5.04594658 C30.7659662,5.22011309 31.6181817,6.243518 31.6181817,6.243518 L31.4612033,7.01330094 C31.4612033,7.01330094 30.5717235,6.05047341 29.6465238,5.9015763 C28.7213241,5.75267919 27.4962061,6.11086529 26.5059297,6.70709022 L26.5059297,5.90157628 Z" id="Rectangle-4" fill="#F4FAFF" transform="translate(29.062056, 5.999191) rotate(-30.000000) translate(-29.062056, -5.999191) "></path>
                    </g>
                    <rect id="Rectangle-8" fill="#EB6B8F" transform="translate(37.500000, 43.500000) rotate(-30.000000) translate(-37.500000, -43.500000) " x="36" y="43" width="3" height="1" rx="0.5"></rect>
                </g>
            </g>
        </g>
    </g>
</svg>