<?xml version="1.0" encoding="UTF-8" standalone="no"?>
<svg width="140px" height="140px" viewBox="0 0 140 140" version="1.1" xmlns="http://www.w3.org/2000/svg" xmlns:xlink="http://www.w3.org/1999/xlink">
    <!-- Generator: Sketch 40 (33762) - http://www.bohemiancoding.com/sketch -->
    <title>basics_integration</title>
    <desc>Created with Sketch.</desc>
    <defs></defs>
    <g id="Artboards" stroke="none" stroke-width="1" fill="none" fill-rule="evenodd">
        <g id="basics_integration">
            <g id="basic-text">
                <g id="Group-6" transform="translate(28.000000, 22.000000)">
                    <path d="M8.09090909,70.1274857 L8.09090909,79.1127 C8.09090909,80.6193 9.79809091,81.4894714 11.014039,80.6042571 L26.558987,69.2862429" id="Fill-3" fill="#F2A600"></path>
                    <path d="M49.7012987,33.5571429 L6.93506494,33.5571429 C3.1045974,33.5571429 0,36.6652286 0,40.5 L0,64.8 C0,68.6347714 3.1045974,71.7428571 6.93506494,71.7428571 L49.7012987,71.7428571 C53.5317662,71.7428571 56.6363636,68.6347714 56.6363636,64.8 L56.6363636,40.5 C56.6363636,36.6652286 53.5317662,33.5571429 49.7012987,33.5571429" id="Fill-4" fill="#F4B400"></path>
                    <path d="M56.6363636,50.3079429 L33.5194805,41.6571429 L55.8064675,37.2044571 C56.3358442,38.1845571 56.6363636,39.3069857 56.6363636,40.5 L56.6363636,50.3079429" id="Fill-6" fill="#F0A92C"></path>
                    <path d="M78.5974026,41.3157857 L78.5974026,51.1977857 C78.5974026,52.8548143 76.7203117,53.8117714 75.3818442,52.8374571 L58.2892208,40.3923857" id="Fill-7" fill="#00ACC1"></path>
                    <path d="M82.0649351,0 L33.5194805,0 C29.689013,0 26.5844156,3.10808571 26.5844156,6.94285714 L26.5844156,34.7142857 C26.5844156,38.5490571 29.689013,41.6571429 33.5194805,41.6571429 L82.0649351,41.6571429 C85.8954026,41.6571429 89,38.5490571 89,34.7142857 L89,6.94285714 C89,3.10808571 85.8954026,0 82.0649351,0" id="Fill-8" fill="#00BCD4"></path>
                    <path d="M47.9675325,20.8285714 C47.9675325,23.0653286 46.1563247,24.8785714 43.9220779,24.8785714 C41.6878312,24.8785714 39.8766234,23.0653286 39.8766234,20.8285714 C39.8766234,18.5918143 41.6878312,16.7785714 43.9220779,16.7785714 C46.1563247,16.7785714 47.9675325,18.5918143 47.9675325,20.8285714" id="Fill-9" fill="#FFFFFF"></path>
                    <path d="M75.7077922,20.8285714 C75.7077922,23.0653286 73.8965844,24.8785714 71.6623377,24.8785714 C69.4280909,24.8785714 67.6168831,23.0653286 67.6168831,20.8285714 C67.6168831,18.5918143 69.4280909,16.7785714 71.6623377,16.7785714 C73.8965844,16.7785714 75.7077922,18.5918143 75.7077922,20.8285714" id="Fill-10" fill="#FFFFFF"></path>
                    <path d="M61.8376623,20.8285714 C61.8376623,23.0653286 60.0264545,24.8785714 57.7922078,24.8785714 C55.557961,24.8785714 53.7467532,23.0653286 53.7467532,20.8285714 C53.7467532,18.5918143 55.557961,16.7785714 57.7922078,16.7785714 C60.0264545,16.7785714 61.8376623,18.5918143 61.8376623,20.8285714" id="Fill-11" fill="#FFFFFF"></path>
                    <path d="M19.6493506,52.65 C19.6493506,54.8867571 17.8381429,56.7 15.6038961,56.7 C13.3696494,56.7 11.5584416,54.8867571 11.5584416,52.65 C11.5584416,50.4132429 13.3696494,48.6 15.6038961,48.6 C17.8381429,48.6 19.6493506,50.4132429 19.6493506,52.65" id="Fill-12" fill="#FFFFFF"></path>
                    <path d="M46.2337662,52.65 C46.2337662,54.8867571 44.4225584,56.7 42.1883117,56.7 C39.9540649,56.7 38.1428571,54.8867571 38.1428571,52.65 C38.1428571,50.4132429 39.9540649,48.6 42.1883117,48.6 C44.4225584,48.6 46.2337662,50.4132429 46.2337662,52.65" id="Fill-13" fill="#FFFFFF"></path>
                    <path d="M33.5194805,52.65 C33.5194805,54.8867571 31.7082727,56.7 29.474026,56.7 C27.2397792,56.7 25.4285714,54.8867571 25.4285714,52.65 C25.4285714,50.4132429 27.2397792,48.6 29.474026,48.6 C31.7082727,48.6 33.5194805,50.4132429 33.5194805,52.65" id="Fill-14" fill="#FFFFFF"></path>
                </g>
            </g>
        </g>
    </g>
</svg>